<svg xmlns="http://www.w3.org/2000/svg" viewBox="0 0 32 32"><g fill="#0CB148" transform="translate(0 6)"><path d="M31.29 18.8h-4.14V7.38h4.14V18.8zM6.28 15.27a2.11 2.11 0 0 1-2.14-2.18c0-1.25.93-2.17 2.14-2.17s2.14.92 2.14 2.17-.93 2.18-2.14 2.18zm0-8.06C2.78 7.2 0 9.6 0 13.09c0 3.5 2.78 5.89 6.28 5.89 3.5 0 6.28-2.4 6.28-5.89 0-3.5-2.79-5.88-6.28-5.88zm7.99 6.81c0 3 2.39 4.96 5.35 4.96 2.96 0 5.35-1.96 5.35-4.96V7.38h-4.14v6.46c0 .93-.46 1.43-1.2 1.43-.76 0-1.22-.5-1.22-1.43V7.38h-4.14v6.64z"/><polygon points="29.645 3.639 28.789 3.639 28.789 .071 29.645 .071"/><path d="M30.36.89v.98a1.92 1.92 0 1 1-2.28 0V.9a2.78 2.78 0 1 0 2.28 0"/><polygon points="17.837 1.32 15.946 .713 15.946 0 17.837 .606"/><path d="M2.43 4.76c.64 0 1.04-.52 1.04-1.19 0-.68-.4-1.2-1.04-1.2-.65 0-1.04.52-1.04 1.2 0 .67.4 1.19 1.04 1.19zM1.42 6.9H.57V1.7h.78v.54c.25-.38.68-.62 1.25-.62 1.1 0 1.72.88 1.72 1.94S3.7 5.51 2.6 5.51c-.57 0-.98-.25-1.18-.57V6.9z"/><polygon points="4.985 .071 5.834 .071 5.834 5.423 4.985 5.423"/><path d="M8.38 4.76c.65 0 1.04-.52 1.04-1.19 0-.66-.4-1.18-1.04-1.18s-1.04.52-1.04 1.18c0 .67.4 1.19 1.04 1.19zm1.85-3.03v3.7h-.78v-.54c-.24.39-.67.62-1.25.62-1.1 0-1.71-.88-1.71-1.94 0-1.05.62-1.93 1.7-1.93.59 0 1.02.23 1.26.61v-.52h.78zm1.65.48c.16-.3.53-.58 1.14-.58.9 0 1.38.6 1.38 1.47v2.32h-.85V3.2c0-.5-.23-.84-.74-.84-.53 0-.87.34-.87.91v2.15h-.85v-3.7h.79v.5zm3.98.98h1.97c-.07-.51-.43-.86-.98-.86s-.9.35-1 .86zm-.02.63c.07.58.45.96 1.04.96.4 0 .73-.2.86-.53h.86a1.76 1.76 0 0 1-1.74 1.26C15.74 5.5 15 4.67 15 3.57c0-1.08.74-1.94 1.84-1.94s1.82.84 1.82 1.92v.27h-2.83z"/><polygon points="20.271 5.423 19.422 5.423 19.422 2.397 18.858 2.397 18.858 1.719 19.422 1.719 19.422 .756 20.271 .756 20.271 1.719 20.892 1.719 20.892 2.397 20.271 2.397"/><path d="M21.91 3.19h1.97c-.07-.51-.43-.86-.98-.86s-.9.35-.99.86zm-.01.63c.06.58.44.96 1.03.96.4 0 .73-.2.86-.53h.86a1.76 1.76 0 0 1-1.74 1.26c-1.12 0-1.85-.84-1.85-1.94 0-1.08.74-1.94 1.84-1.94s1.82.84 1.82 1.92v.27H21.9z"/></g></svg>